<?xml version="1.0" encoding="UTF-8"?>
<svg width="512" height="512" viewBox="0 0 512 512" fill="none" xmlns="http://www.w3.org/2000/svg">
  <rect width="512" height="512" rx="100" fill="#3B82F6"/>
  <path d="M185 145H327C339.15 145 349 154.85 349 167V345C349 357.15 339.15 367 327 367H185C172.85 367 163 357.15 163 345V167C163 154.85 172.85 145 185 145Z" stroke="white" stroke-width="24" stroke-linejoin="round"/>
  <path d="M226 145V367" stroke="white" stroke-width="16"/>
  <path d="M286 145V367" stroke="white" stroke-width="16"/>
  <path d="M163 256H349" stroke="white" stroke-width="16"/>
  <path d="M230 200L282 200" stroke="white" stroke-width="16" stroke-linecap="round"/>
  <path d="M230 312L282 312" stroke="white" stroke-width="16" stroke-linecap="round"/>
  <path d="M256 190L276 210" stroke="#FFDD66" stroke-width="12" stroke-linecap="round"/>
  <path d="M256 322L276 302" stroke="#FFDD66" stroke-width="12" stroke-linecap="round"/>
</svg>